<svg width="1840" height="316" viewBox="0 0 1840 316" fill="none" xmlns="http://www.w3.org/2000/svg">
<path d="M1840 0H0V1H1840V0Z" fill="#EBE5D7" fill-opacity="0.1"/>
<path d="M1840 9H0V10H1840V9Z" fill="#EBE5D7" fill-opacity="0.1"/>
<path d="M1840 18H0V19H1840V18Z" fill="#EBE5D7" fill-opacity="0.1"/>
<path d="M1840 27H0V28H1840V27Z" fill="#EBE5D7" fill-opacity="0.1"/>
<path d="M1840 36H0V37H1840V36Z" fill="#EBE5D7" fill-opacity="0.1"/>
<path d="M1840 45H0V46H1840V45Z" fill="#EBE5D7" fill-opacity="0.1"/>
<path d="M1840 54H0V55H1840V54Z" fill="#EBE5D7" fill-opacity="0.1"/>
<path d="M1840 63H0V64H1840V63Z" fill="#EBE5D7" fill-opacity="0.1"/>
<path d="M1840 72H0V73H1840V72Z" fill="#EBE5D7" fill-opacity="0.1"/>
<path d="M1840 81H0V82H1840V81Z" fill="#EBE5D7" fill-opacity="0.1"/>
<path d="M1840 90H0V91H1840V90Z" fill="#EBE5D7" fill-opacity="0.1"/>
<path d="M1840 99H0V100H1840V99Z" fill="#EBE5D7" fill-opacity="0.1"/>
<path d="M1840 108H0V109H1840V108Z" fill="#EBE5D7" fill-opacity="0.1"/>
<path d="M1840 117H0V118H1840V117Z" fill="#EBE5D7" fill-opacity="0.1"/>
<path d="M1840 126H0V127H1840V126Z" fill="#EBE5D7" fill-opacity="0.1"/>
<path d="M1840 135H0V136H1840V135Z" fill="#EBE5D7" fill-opacity="0.1"/>
<path d="M1840 144H0V145H1840V144Z" fill="#EBE5D7" fill-opacity="0.1"/>
<path d="M1840 153H0V154H1840V153Z" fill="#EBE5D7" fill-opacity="0.1"/>
<path d="M1840 162H0V163H1840V162Z" fill="#EBE5D7" fill-opacity="0.1"/>
<path d="M1840 171H0V172H1840V171Z" fill="#EBE5D7" fill-opacity="0.1"/>
<path d="M1840 180H0V181H1840V180Z" fill="#EBE5D7" fill-opacity="0.1"/>
<path d="M1840 189H0V190H1840V189Z" fill="#EBE5D7" fill-opacity="0.1"/>
<path d="M1840 198H0V199H1840V198Z" fill="#EBE5D7" fill-opacity="0.1"/>
<path d="M1840 207H0V208H1840V207Z" fill="#EBE5D7" fill-opacity="0.1"/>
<path d="M1840 216H0V217H1840V216Z" fill="#EBE5D7" fill-opacity="0.1"/>
<path d="M1840 225H0V226H1840V225Z" fill="#EBE5D7" fill-opacity="0.1"/>
<path d="M1840 234H0V235H1840V234Z" fill="#EBE5D7" fill-opacity="0.1"/>
<path d="M1840 243H0V244H1840V243Z" fill="#EBE5D7" fill-opacity="0.1"/>
<path d="M1840 252H0V253H1840V252Z" fill="#EBE5D7" fill-opacity="0.1"/>
<path d="M1840 261H0V262H1840V261Z" fill="#EBE5D7" fill-opacity="0.1"/>
<path d="M1840 270H0V271H1840V270Z" fill="#EBE5D7" fill-opacity="0.1"/>
<path d="M1840 279H0V280H1840V279Z" fill="#EBE5D7" fill-opacity="0.1"/>
<path d="M1840 288H0V289H1840V288Z" fill="#EBE5D7" fill-opacity="0.1"/>
<path d="M1840 297H0V298H1840V297Z" fill="#EBE5D7" fill-opacity="0.1"/>
<path d="M1840 306H0V307H1840V306Z" fill="#EBE5D7" fill-opacity="0.1"/>
<path d="M1840 315H0V316H1840V315Z" fill="#EBE5D7" fill-opacity="0.1"/>
</svg>
