<svg width="48" height="48" viewBox="0 0 48 48" fill="none" xmlns="http://www.w3.org/2000/svg">
<rect x="0.3" y="0.3" width="47.4" height="47.4" rx="23.7" fill="white"/>
<rect x="0.3" y="0.3" width="47.4" height="47.4" rx="23.7" stroke="#1B3026" stroke-width="0.6"/>
<path d="M24.2781 29.9703L22.898 38.3929H16.2734L20.4139 12.9246H27.4986C28.6642 12.9246 29.7271 13.0047 30.6885 13.1649C31.6491 13.3256 32.4773 13.6464 33.1726 14.1276C33.8675 14.6091 34.4094 15.2975 34.7983 16.1934C35.1865 17.0896 35.3809 18.2857 35.3809 19.783C35.3809 21.1736 35.2122 22.4902 34.8748 23.7338C34.5375 24.9771 33.9955 26.0597 33.2491 26.9825C32.5027 27.9049 31.5364 28.634 30.3507 29.1683C29.1646 29.7033 27.7233 29.9707 26.0263 29.9707H24.2777L24.2781 29.9703ZM26.1185 27.4032C26.7316 27.4032 27.2478 27.0691 27.6673 26.4003C28.0864 25.7324 28.4343 24.9163 28.7105 23.9541C28.9863 22.9914 29.1856 21.9885 29.3083 20.9462C29.4311 19.9034 29.4923 18.9947 29.4923 18.2189C29.4923 17.497 29.4001 16.8891 29.2162 16.3939C29.0322 15.8994 28.6336 15.6518 28.02 15.6518H26.6398L24.7077 27.4032H26.1185Z" fill="#1B3026"/>
<path d="M14.2589 45.8754L13.5781 45.5622L21.2076 0.319637L21.954 0.244751" fill="#1B3026"/>
<path d="M12.6988 45.0597L12.0293 44.6776L19.484 0.514878L20.2373 0.398926L12.6988 45.0597Z" fill="#1B3026"/>
</svg>
