<svg width="48" height="48" viewBox="0 0 48 48" fill="none" xmlns="http://www.w3.org/2000/svg">
<rect x="0.3" y="0.3" width="47.4" height="47.4" rx="23.7" stroke="#EBE5D7" stroke-width="0.6"/>
<path d="M24.2774 29.9703L22.8973 38.3929H16.2727L20.4131 12.9246H27.4979C28.6634 12.9246 29.7263 13.0047 30.6878 13.1649C31.6484 13.3256 32.4766 13.6464 33.1719 14.1276C33.8668 14.6091 34.4087 15.2975 34.7976 16.1934C35.1857 17.0896 35.3802 18.2857 35.3802 19.783C35.3802 21.1736 35.2115 22.4902 34.8741 23.7338C34.5367 24.9771 33.9948 26.0597 33.2484 26.9825C32.5019 27.9049 31.5357 28.634 30.35 29.1683C29.1639 29.7033 27.7225 29.9707 26.0255 29.9707H24.277L24.2774 29.9703ZM26.1177 27.4032C26.7309 27.4032 27.2471 27.0691 27.6666 26.4003C28.0857 25.7324 28.4335 24.9163 28.7097 23.9541C28.9855 22.9914 29.1848 21.9885 29.3076 20.9462C29.4304 19.9034 29.4916 18.9947 29.4916 18.2189C29.4916 17.497 29.3994 16.8891 29.2154 16.3939C29.0314 15.8994 28.6328 15.6518 28.0193 15.6518H26.6391L24.707 27.4032H26.1177Z" fill="#EBE5D7"/>
<path d="M14.2585 45.8755L13.5776 45.5623L21.2071 0.319759L21.9535 0.244873" fill="#EBE5D7"/>
<path d="M12.6979 45.0597L12.0283 44.6776L19.4831 0.514878L20.2363 0.398926L12.6979 45.0597Z" fill="#EBE5D7"/>
</svg>
