<svg width="1920" height="322" viewBox="0 0 1920 322" fill="none" xmlns="http://www.w3.org/2000/svg">
<g clip-path="url(#clip0_7_1641)">
<path d="M1920 152H0V157H1920V152Z" fill="#EBE5D7"/>
<path d="M1920 165H0V170H1920V165Z" fill="#EBE5D7"/>
<path d="M768.53 268.71C769.89 268.71 770.57 269.8 770.57 271.98C770.57 274.16 770.09 277.92 769.12 283.25C768.38 286.82 764.3 291.92 756.88 298.56C747.92 306.5 738.09 312.17 727.37 315.57C720.91 317.61 714.6 318.63 708.45 318.63C702.3 318.63 696.69 316.04 691.61 310.85C686.54 305.66 684 299.51 684 292.4C684 285.29 685.43 277.92 688.29 270.29C691.15 262.67 695.01 255.38 699.85 248.44C704.7 241.5 710.42 234.82 717.03 228.41C723.63 222 730.51 216.45 737.65 211.74C744.79 207.04 752.28 203.29 760.1 200.52C767.92 197.74 775.35 196.35 782.38 196.35C787.93 196.35 792.67 198.36 796.58 202.39C798.62 204.55 799.64 207.25 799.64 210.51C799.64 213.77 798.05 217.88 794.88 222.84C791.7 227.8 787.95 232.32 783.61 236.4C779.27 240.48 774.79 243.94 770.17 246.77C765.55 249.61 761.85 251.02 759.07 251.02C756.29 251.02 753.91 250.16 751.93 248.43C749.94 246.7 748.95 245.16 748.95 243.8C748.95 242.44 749.25 240.94 749.84 239.29C750.44 237.65 751.19 236.82 752.09 236.82C751.86 237.1 751.75 237.39 751.75 237.67C751.75 238.35 752.73 238.69 754.68 238.69C756.63 238.69 759.91 236.96 764.5 233.5C769.09 230.04 773.24 226.16 776.96 221.85C780.67 217.54 782.53 214.31 782.53 212.16C782.53 210.69 781.54 209.95 779.55 209.95C774.22 209.95 766.86 212.43 757.48 217.39C748.1 222.35 739.13 228.74 730.57 236.57C722.01 244.39 714.57 253.68 708.25 264.42C701.93 275.16 698.77 284.82 698.77 293.37C698.77 296.94 699.72 299.8 701.62 301.96C703.52 304.12 706.44 305.19 710.38 305.19C714.32 305.19 718.98 304.06 724.37 301.79C729.75 299.52 734.87 296.74 739.72 293.46C744.57 290.17 749.14 286.8 753.45 283.34C757.76 279.88 761.2 276.85 763.78 274.24C766.36 271.63 767.68 270.06 767.73 269.52C767.79 268.98 768.04 268.71 768.5 268.71H768.53Z" fill="#EBE5D7"/>
<path d="M839.2 253.66C843.51 253.66 845.66 255.13 845.66 258.08C845.66 259.67 845.29 260.83 844.55 261.57C843.81 262.31 842.24 264.76 839.83 268.93C837.42 273.1 834.76 278.43 831.84 284.92C828.92 291.41 827.04 296.95 826.19 301.54C826.02 302.11 825.93 302.9 825.93 303.92C825.93 307.04 826.78 308.6 828.48 308.6C830.18 308.6 832.19 307.79 834.52 306.18C836.84 304.56 838.91 302.84 840.73 300.99C842.54 299.15 844.31 297.26 846.04 295.34C847.77 293.41 848.8 292.31 849.14 292.02C849.48 291.74 849.99 291.59 850.67 291.59C851.75 291.59 852.4 292.41 852.63 294.06C852.86 295.7 852.97 297.41 852.97 299.16C852.97 300.91 852.8 302.14 852.46 302.82C850.82 306.05 847.2 309.93 841.62 314.47C836.04 319.01 830.96 321.27 826.4 321.27C821.84 321.27 818.48 319.88 816.32 317.1C814.16 314.32 813.09 311.25 813.09 307.87C813.09 304.49 813.66 301.53 814.79 298.98C810.08 305.1 804.68 310.29 798.59 314.54C792.49 318.79 787.52 320.92 783.67 320.92C779.82 320.92 776.67 319.76 774.23 317.43C771.11 314.54 769.55 310.53 769.55 305.4C769.55 300.27 770.7 295.11 772.99 289.92C775.29 284.73 778.3 280 782.05 275.72C785.79 271.44 789.9 267.54 794.38 264.03C803.79 256.66 812.46 252.98 820.4 252.98C823.46 252.98 825.95 253.49 827.88 254.51C829.81 255.53 831.03 256.81 831.54 258.34C832.9 256.3 834.05 255.01 834.98 254.47C835.92 253.93 837.32 253.66 839.19 253.66H839.2ZM827.89 263.1C818.2 263.1 808.16 268.49 797.79 279.26C794.1 283.12 790.72 287.74 787.63 293.12C784.54 298.51 783 302.19 783 304.17C783 306.15 783.57 307.15 784.7 307.15C786.29 307.15 790.71 304.02 797.97 297.75C805.23 291.49 810.04 286.88 812.43 283.93C815.04 280.64 820.2 273.7 827.91 263.1H827.89Z" fill="#EBE5D7"/>
<path d="M873.04 271.94C886.42 256.75 897.81 249.15 907.22 249.15C909.54 249.15 911.46 249.84 912.96 251.23C914.46 252.62 915.21 254.42 915.21 256.63C915.21 258.84 913.64 262.54 910.49 267.73C907.34 272.92 904.44 277.3 901.77 280.87C900.35 282.69 898.75 283.59 896.97 283.59C895.19 283.59 893.79 282.94 892.8 281.63C891.81 280.33 891.31 278.8 891.31 277.04C891.31 273.13 893.41 268.71 897.6 263.77L897.43 263.6C895.56 263.77 890.92 267.46 883.53 274.65C876.13 281.85 869.84 288.3 864.65 294C859.46 299.7 853.84 306.63 847.77 314.79C846.01 317.23 844.52 318.45 843.31 318.45C842.1 318.45 840.47 318.07 838.46 317.3C836.45 316.53 835.23 315.98 834.8 315.64C834.37 315.3 834.16 314.73 834.16 313.94C834.16 313.15 834.39 312.23 834.84 311.18C835.29 310.13 836.13 308.64 837.35 306.72C838.57 304.79 840.41 301.67 842.88 297.37C845.35 293.06 849.19 286.54 854.4 277.81C859.61 269.08 862.73 263.81 863.75 261.99C865.9 258.25 867.66 255.53 869.02 253.83C871.57 250.6 875.88 248.98 881.95 248.98C883.31 248.98 883.99 249.83 883.99 251.53C883.99 254.2 881.52 259.21 876.59 266.58L873.02 271.94H873.04Z" fill="#EBE5D7"/>
<path d="M1035.37 268.71C1036.73 268.71 1037.41 269.8 1037.41 271.98C1037.41 274.16 1036.93 277.92 1035.96 283.25C1035.22 286.82 1031.14 291.92 1023.72 298.56C1014.76 306.5 1004.93 312.17 994.21 315.57C987.75 317.61 981.44 318.63 975.29 318.63C969.14 318.63 963.53 316.04 958.45 310.85C953.38 305.66 950.84 299.51 950.84 292.4C950.84 285.29 952.27 277.92 955.13 270.29C957.99 262.67 961.85 255.38 966.69 248.44C971.54 241.5 977.26 234.82 983.87 228.41C990.47 222 997.35 216.45 1004.49 211.74C1011.63 207.04 1019.12 203.29 1026.94 200.52C1034.76 197.74 1042.19 196.35 1049.22 196.35C1054.78 196.35 1059.51 198.36 1063.42 202.39C1065.46 204.55 1066.48 207.25 1066.48 210.51C1066.48 213.77 1064.89 217.88 1061.72 222.84C1058.54 227.8 1054.79 232.32 1050.45 236.4C1046.11 240.48 1041.63 243.94 1037.01 246.77C1032.39 249.61 1028.69 251.02 1025.91 251.02C1023.13 251.02 1020.75 250.16 1018.77 248.43C1016.78 246.7 1015.79 245.16 1015.79 243.8C1015.79 242.44 1016.09 240.94 1016.68 239.29C1017.28 237.65 1018.03 236.82 1018.93 236.82C1018.7 237.1 1018.59 237.39 1018.59 237.67C1018.59 238.35 1019.57 238.69 1021.52 238.69C1023.47 238.69 1026.75 236.96 1031.34 233.5C1035.93 230.04 1040.08 226.16 1043.8 221.85C1047.51 217.54 1049.37 214.31 1049.37 212.16C1049.37 210.69 1048.38 209.95 1046.39 209.95C1041.06 209.95 1033.71 212.43 1024.32 217.39C1014.94 222.35 1005.97 228.74 997.41 236.57C988.85 244.39 981.41 253.68 975.09 264.42C968.77 275.16 965.61 284.82 965.61 293.37C965.61 296.94 966.56 299.8 968.46 301.96C970.36 304.12 973.28 305.19 977.22 305.19C981.16 305.19 985.82 304.06 991.21 301.79C996.6 299.52 1001.71 296.74 1006.56 293.46C1011.41 290.17 1015.98 286.8 1020.29 283.34C1024.6 279.88 1028.04 276.85 1030.62 274.24C1033.2 271.63 1034.52 270.06 1034.57 269.52C1034.63 268.98 1034.88 268.71 1035.34 268.71H1035.37Z" fill="#EBE5D7"/>
<path d="M1118.83 193.07C1120.9 194.69 1121.93 197.08 1121.93 200.26C1121.93 203.44 1120.17 208.41 1116.66 215.18C1113.14 221.95 1108.92 228.87 1103.99 235.93C1099.06 242.99 1093.47 250.49 1087.24 258.42C1077.38 271.01 1067.91 282.31 1058.84 292.35C1058.78 293.03 1058.54 294.29 1058.12 296.13C1057.69 297.97 1057.48 299.83 1057.48 301.7C1057.48 303.57 1058.34 305.26 1060.07 306.76C1061.8 308.26 1063.94 309.01 1066.49 309.01C1069.04 309.01 1071.78 308.1 1074.7 306.29C1077.62 304.48 1080.16 302.46 1082.31 300.25C1087.98 294.41 1091.49 291.49 1092.85 291.49C1094.21 291.49 1094.89 293.56 1094.89 297.7V299.4C1094.89 301.61 1094.49 303.23 1093.7 304.25C1088.94 310.09 1083.58 314.44 1077.63 317.3C1071.68 320.16 1066.04 321.59 1060.71 321.59C1055.38 321.59 1051.33 319.96 1048.55 316.7C1045.77 313.44 1044.38 308.98 1044.38 303.31C1044.38 292.26 1047.34 279.26 1053.27 264.32C1059.19 249.38 1065.87 236.67 1073.3 226.18C1090.02 202.48 1102.81 190.64 1111.65 190.64C1114.37 190.64 1116.77 191.45 1118.84 193.06L1118.83 193.07ZM1107.82 204.76C1107.82 203.91 1107.54 203.48 1106.97 203.48C1104.98 203.48 1099.77 209.15 1091.32 220.49C1082.87 231.83 1076.76 240.87 1073 247.62C1069.23 254.37 1065.67 262.84 1062.33 273.05C1069.02 265.11 1078.27 252.74 1090.09 235.93C1101.91 219.12 1107.82 208.73 1107.82 204.76Z" fill="#EBE5D7"/>
<path d="M1158.08 291.59C1159.16 291.59 1159.81 292.41 1160.04 294.06C1160.27 295.7 1160.38 297.41 1160.38 299.16C1160.38 300.91 1160.21 302.14 1159.87 302.82C1158.23 306 1154.63 309.86 1149.07 314.43C1143.51 318.99 1138.24 321.28 1133.25 321.28C1130.19 321.28 1127.35 320.36 1124.75 318.52C1122.14 316.68 1120.84 313.46 1120.84 308.87C1120.84 304.28 1122.06 299.77 1124.5 295.35C1110.44 312.98 1099.41 321.8 1091.42 321.8C1088.24 321.8 1085.68 320.67 1083.72 318.4C1081.76 316.13 1080.79 313.79 1080.79 311.38C1080.79 308.97 1081.13 306.48 1081.81 303.9C1082.49 301.32 1083.21 299.01 1083.98 296.97C1084.75 294.93 1085.88 292.41 1087.38 289.4C1088.88 286.4 1090 284.21 1090.74 282.85C1091.48 281.49 1092.65 279.44 1094.27 276.68C1095.89 273.93 1098.01 270.23 1100.65 265.58C1103.29 260.93 1105.47 257.49 1107.2 255.25C1108.93 253.01 1110.61 251.88 1112.26 251.85C1113.9 251.82 1115.35 252.49 1116.6 253.85C1117.85 255.21 1118.47 256.32 1118.47 257.17C1118.47 258.02 1116.57 261.85 1112.77 268.65C1101.55 288.94 1095.93 300.76 1095.93 304.11C1095.93 304.96 1096.24 305.39 1096.87 305.39C1099.59 305.39 1106.36 299.49 1117.19 287.7C1128.02 275.91 1134.28 268.35 1135.98 265.04C1137.68 261.72 1139.34 258.93 1140.95 256.66C1142.57 254.39 1143.77 253 1144.56 252.49C1147 250.9 1150.14 250.05 1154 249.94C1154.62 249.94 1155.11 249.97 1155.45 250.03C1155.79 250.09 1156.19 250.57 1156.64 251.48C1157.09 252.39 1157.32 253.1 1157.32 253.61C1156.81 255.2 1154.56 259.42 1150.56 266.28C1146.56 273.14 1144.34 277.02 1143.88 277.93C1137.19 291.76 1133.85 300.78 1133.85 304.97C1133.85 307.35 1134.76 308.54 1136.57 308.54C1139.86 308.09 1143.83 305.45 1148.47 300.63C1150.17 298.87 1151.86 297.09 1153.53 295.27C1155.2 293.46 1156.24 292.39 1156.63 292.08C1157.03 291.77 1157.51 291.61 1158.08 291.61V291.59Z" fill="#EBE5D7"/>
<path d="M1224.91 196.94C1212.95 214.91 1201.3 233.7 1189.96 253.32C1192.57 251.96 1195.5 250.98 1198.76 250.39C1202.02 249.79 1204.32 249.5 1205.65 249.5C1206.98 249.5 1208.13 249.54 1209.09 249.63C1210.05 249.72 1211.29 250.03 1212.79 250.57C1214.29 251.11 1215.58 251.86 1216.66 252.82C1219.27 255.15 1220.57 258.43 1220.57 262.68C1220.57 266.93 1219.42 271.6 1217.13 276.67C1214.83 281.74 1211.72 286.83 1207.78 291.93C1203.84 297.03 1199.53 301.78 1194.85 306.17C1190.17 310.56 1185.14 314.15 1179.76 316.93C1174.37 319.71 1169.36 321.1 1164.71 321.1C1162.55 321.1 1160.08 319.71 1157.27 316.93C1154.46 314.15 1153.06 310.5 1153.06 305.96C1153.06 301.42 1155.02 294.4 1158.93 284.87C1162.84 275.35 1167.59 265.67 1173.17 255.83C1178.75 246 1184.45 236.4 1190.26 227.05C1196.07 217.7 1201.02 210.04 1205.1 204.09C1209.18 198.14 1211.68 194.71 1212.58 193.8C1213.49 192.89 1215.14 192.13 1217.55 191.5C1219.96 190.88 1222.04 190.58 1223.8 190.61C1225.56 190.64 1226.44 191.45 1226.44 193.03C1226.44 194.05 1225.93 195.36 1224.91 196.94ZM1201.95 278.57C1204.27 274.49 1205.44 270.78 1205.44 267.43C1205.44 264.08 1204.38 262.41 1202.25 262.41C1200.12 262.41 1196.86 263.33 1192.47 265.17C1188.08 267.01 1185.57 267.93 1184.94 267.93C1184.31 267.93 1183.49 267.42 1182.47 266.4C1171.42 286.3 1165.89 299 1165.89 304.5C1165.89 307.05 1166.71 308.33 1168.36 308.33C1172.27 308.33 1177.91 305.06 1185.28 298.51C1192.65 291.96 1198.21 285.32 1201.95 278.57Z" fill="#EBE5D7"/>
<path d="M749.94 85L740.94 127H697.74L724.74 0H770.94C778.54 0 785.47 0.4 791.74 1.2C798.01 2 803.41 3.6 807.94 6C812.47 8.4 816.01 11.83 818.54 16.3C821.07 20.77 822.34 26.73 822.34 34.2C822.34 41.13 821.24 47.7 819.04 53.9C816.84 60.1 813.31 65.5 808.44 70.1C803.57 74.7 797.27 78.33 789.54 81C781.81 83.67 772.41 85 761.34 85H749.94ZM761.94 72.2C765.94 72.2 769.31 70.53 772.04 67.2C774.77 63.87 777.04 59.8 778.84 55C780.64 50.2 781.94 45.2 782.74 40C783.54 34.8 783.94 30.27 783.94 26.4C783.94 22.8 783.34 19.77 782.14 17.3C780.94 14.83 778.34 13.6 774.34 13.6H765.34L752.74 72.2H761.94Z" fill="#EBE5D7"/>
<path d="M942.33 30.2C942.33 38.07 940.13 45.33 935.73 52C931.33 58.67 924.06 63.73 913.93 67.2L937.13 127H892.53L874.93 71.6H872.73L860.93 127H817.73L844.73 0H897.33C903.46 0 909.26 0.37 914.73 1.1C920.2 1.83 924.96 3.3 929.03 5.5C933.1 7.7 936.33 10.77 938.73 14.7C941.13 18.63 942.33 23.8 942.33 30.2ZM884.73 58.8C888.2 58.8 891.16 57.63 893.63 55.3C896.1 52.97 898.1 50.13 899.63 46.8C901.16 43.47 902.26 39.9 902.93 36.1C903.6 32.3 903.93 29 903.93 26.2C903.93 22.73 903.33 19.77 902.13 17.3C900.93 14.83 898.33 13.6 894.33 13.6H885.33L875.33 58.8H884.73Z" fill="#EBE5D7"/>
<path d="M987.53 127H944.33L971.33 0H1014.73L987.53 127Z" fill="#EBE5D7"/>
<path d="M1025.93 0H1071.53L1078.33 86L1119.93 0H1139.73L1080.53 127H1033.33L1025.93 0Z" fill="#EBE5D7"/>
<path d="M1152.73 0H1236.93L1233.73 15.2H1192.93L1184.53 53.8H1218.73L1215.53 68.8H1181.33L1172.13 111.6H1212.93L1209.93 127H1125.73L1152.73 0Z" fill="#EBE5D7"/>
</g>
<defs>
<clipPath id="clip0_7_1641">
<rect width="1920" height="322" fill="white"/>
</clipPath>
</defs>
</svg>
